User Type,Username,Date,Text
,iPlunder,2012-09-17T03:59Z,"I don't know what font you're using for the logs, but please change it! They are gibberish on my Mac - I've never had this issue before, it's coming from your end.


xact Audio Copy V0.99 prebeta 5 from 4. May 2009

ŒÚ˜∏Ú EAC Ó· ËÁ‚ÎÂ˜ÂÌËË, ‚˚ÔÓÎÌÂÌÌÓÏ 22. ˇÌ‚‡ˇ 2010, 19:44

Def Leppard / On Through The Night [32PD-445]

ƒËÒÍÓ‚Ó‰: ASUS    DRW-2014S1   Adapter: 1  ID: 0

–ÂÊËÏ ˜ÚÂÌËˇ                 : ƒÓÒÚÓ‚ÂÌÓÒÚ¸
»ÒÔÓÎ¸ÁÓ‚‡ÌËÂ ÚÓ˜ÌÓ„Ó ÔÓÚÓÍ‡ : ƒ‡
ŒÚÍÎ˛˜ÂÌËÂ Í˝¯‡ ‡Û‰ËÓ        : ƒ‡
»ÒÔÓÎ¸ÁÓ‚‡ÌËÂ ÛÍ‡Á‡ÚÂÎÂÈ C2  : ÕÂÚ

 ÓÂÍˆËˇ ÒÏÂ˘ÂÌËˇ ÔË ˜ÚÂÌËË                     : 6
—ÔÓÒÓ·ÌÓÒÚ¸ ˜ËÚ‡Ú¸ Ó·Î‡ÒÚË Lead-in Ë Lead-out     : ÕÂÚ
«‡ÔÓÎÌÂÌËÂ ÔÓÔÛ˘ÂÌÌ˚ı Ò˝ÏÔÎÓ‚ ÚË¯ËÌÓÈ            : ƒ‡
”‰‡ÎÂÌËÂ ·ÎÓÍÓ‚ Ò ÚË¯ËÌÓÈ ‚ Ì‡˜‡ÎÂ Ë ÍÓÌˆÂ        : ÕÂÚ
œË ‚˚˜ËÒÎÂÌËˇı CRC ËÒÔÓÎ¸ÁÓ‚‡ÎËÒ¸ ÌÛÎÂ‚˚Â Ò˝ÏÔÎ˚ : ƒ‡
»ÌÚÂÙÂÈÒ                                         : ”ÒÚ‡ÌÓ‚ÎÂÌÌ˚È ‚ÌÂ¯ÌËÈ ASPI-ËÌÚÂÙÂÈÒ

¬˚ıÓ‰ÌÓÈ ÙÓÏ‡Ú          : œÓÎ¸ÁÓ‚‡ÚÂÎ¸ÒÍËÈ ÍÓ‰ËÓ‚˘ËÍ
¬˚·‡ÌÌ˚È ·ËÚÂÈÚ        : 128 kBit/s
 ‡˜ÂÒÚ‚Ó                 : ¬˚ÒÓÍËÈ
ƒÓ·‡‚ÎÂÌËÂ ID3-Ú˝„‡      : ÕÂÚ
”ÚËÎËÚ‡ ÒÊ‡ÚËˇ           : C:Program FilesExact Audio CopyFlacflac.exe
ƒÓÔÓÎÌËÚÂÎ¸Ì˚Â Ô‡‡ÏÂÚ˚ : -6 -V -T ""artist=%a"" -T ""title=%t"" -T ""album=%g"" -T ""date=%y"" -T ""tracknumber=%n"" -T ""genre=%m"" -T ""comment=EAC 0.99beta5 / FLAC 1.1.0 q6"" %s


TOC ËÁ‚ÎÂ˜∏ÌÌÓ„Ó CD

     “ÂÍ |   —Ú‡Ú  | ƒÎËÚÂÎ¸ÌÓÒÚ¸ | Õ‡˜‡Î¸Ì˚È ÒÂÍÚÓ |  ÓÌÂ˜Ì˚È ÒÂÍÚÓ 
    ---------------------------------------------------------------------
       1  |  0:00.32 |    3:09.30   |          32      |      14236      
       2  |  3:09.62 |    3:28.10   |       14237      |      29846      
       3  |  6:37.72 |    3:55.15   |       29847      |      47486      
       4  | 10:33.12 |    2:33.48   |       47487      |      59009      
       5  | 13:06.60 |    4:28.20   |       59010      |      79129      
       6  | 17:35.05 |    4:44.70   |       79130      |     100499      
       7  | 22:20.00 |    3:45.17   |      100500      |     117391      
       8  | 26:05.17 |    3:44.15   |      117392      |     134206      
       9  | 29:49.32 |    3:21.20   |      134207      |     149301      
      10  | 33:10.52 |    3:13.38   |      149302      |     163814      
      11  | 36:24.15 |    7:44.37   |      163815      |     198651      


’‡‡ÍÚÂËÒÚËÍË ‰Ë‡Ô‡ÁÓÌ‡ ËÁ‚ÎÂ˜ÂÌËˇ Ë ÒÓÓ·˘ÂÌËˇ Ó· Ó¯Ë·Í‡ı

¬˚·‡ÌÌ˚È ‰Ë‡Ô‡ÁÓÌ

     »Ïˇ Ù‡ÈÎ‡ Y:ÃÛÁ˚Í‡Def Leppard1980 On Through The NightDef Leppard - On Through The Night [32PD-445].wav

     œËÍÓ‚˚È ÛÓ‚ÂÌ¸ 100.0 %
      ‡˜ÂÒÚ‚Ó ‰Ë‡Ô‡ÁÓÌ‡ 100.0 %
     CRC ÍÓÔËË 2E9BB182
      ÓÔËÓ‚‡ÌËÂ... OK

Œ¯Ë·ÓÍ ÌÂ ÔÓËÁÓ¯ÎÓ


AccurateRip: Ò‚Ó‰Í‡

“ÂÍ  1  ÚÓ˜ÌÓÂ ËÁ‚ÎÂ˜ÂÌËÂ (‰Ó‚ÂËÂ 73)  [E783E7CD]
“ÂÍ  2  ÚÓ˜ÌÓÂ ËÁ‚ÎÂ˜ÂÌËÂ (‰Ó‚ÂËÂ 72)  [644CC51E]
“ÂÍ  3  ÚÓ˜ÌÓÂ ËÁ‚ÎÂ˜ÂÌËÂ (‰Ó‚ÂËÂ 72)  [B6DF277C]
“ÂÍ  4  ÚÓ˜ÌÓÂ ËÁ‚ÎÂ˜ÂÌËÂ (‰Ó‚ÂËÂ 73)  [CA46CED5]
“ÂÍ  5  ÚÓ˜ÌÓÂ ËÁ‚ÎÂ˜ÂÌËÂ (‰Ó‚ÂËÂ 71)  [881C460E]
“ÂÍ  6  ÚÓ˜ÌÓÂ ËÁ‚ÎÂ˜ÂÌËÂ (‰Ó‚ÂËÂ 73)  [82CBC8E1]
“ÂÍ  7  ÚÓ˜ÌÓÂ ËÁ‚ÎÂ˜ÂÌËÂ (‰Ó‚ÂËÂ 74)  [384E9E68]
“ÂÍ  8  ÚÓ˜ÌÓÂ ËÁ‚ÎÂ˜ÂÌËÂ (‰Ó‚"
